nColumns=19
nRows=82
DataType=double
version=3
OpenSimVersion=4.1
endheader
time	ground_force_1_vx	ground_force_1_vy	ground_force_1_vz	ground_force_1_px	ground_force_1_py	ground_force_1_pz	ground_force_1_mx	ground_force_1_my	ground_force_1_mz	ground_force_2_vx	ground_force_2_vy	ground_force_2_vz	ground_force_2_px	ground_force_2_py	ground_force_2_pz	ground_force_2_mx	ground_force_2_my	ground_force_2_mz
0	209.536	2225.76	-104.504	0.788376	0	-0.26452	0	67.5004	0	0	0	0	0.680269	0	-0.401841	0	0	0
0.005	236.924	2121.79	-56.1698	0.779534	0	-0.262776	0	31.9223	0	0	0	0	0.708921	0	-0.402871	0	0	0
0.01	268.934	1979.56	-11.874	0.767953	0	-0.261096	0	-2.66695	0	0	0	0	0.739076	0	-0.401458	0	0	0
0.015	300.066	1796.19	21.0585	0.752366	0	-0.259596	0	-28.0783	0	0	0	0	0.768889	0	-0.401171	0	0	0
0.02	326.295	1569.13	34.6989	0.728506	0	-0.258772	0	-38.6064	0	0	0	0	0.799697	0	-0.400525	0	0	0
0.025	347.602	1299.74	23.7422	0.688595	0	-0.259158	0	-31.4748	0	0	0	0	0.830254	0	-0.400095	0	0	0
0.03	364.661	1002.8	-8.18238	0.622002	0	-0.261442	0	-9.08505	0	0	0	0	0.861433	0	-0.399049	0	0	0
0.035	374.141	710.107	-44.2662	0.517962	0	-0.265876	0	20.9438	0	0	0	0	0.892333	0	-0.398079	0	0	0
0.04	368.779	458.526	-63.7037	0.374888	0	-0.271925	0	47.6598	0	0	0	0	0.923505	0	-0.39696	0	0	0
0.045	339.317	278.11	-52.7777	0.226389	0	-0.276508	0	51.9193	0	0	0	0	0.954875	0	-0.39601	0	0	0
0.05	279.427	170.862	-15.2201	0.305008	-0	-0.264837	0	22.3281	0	0	0	0	0.986063	0	-0.396232	0	0	0
0.055	198.624	103.66	27.41	0.45611	0	-0.249961	0	-18.8842	0	0	0	0	1.01714	0	-0.396494	0	0	0
0.06	119.649	52.887	48.6315	0.43511	0	-0.249347	0	-40.3818	0	0	0	0	1.04825	0	-0.39713	0	0	0
0.065	59.6965	18.6119	40.5822	0.415853	0	-0.247741	0	-35.8225	0	0	0	0	1.07932	0	-0.397792	0	0	0
0.07	0	0	0	0.397617	0	-0.244807	0	0	0	0	0	0	1.11009	0	-0.39862	0	0	0
0.075	0	0	0	0.379021	0	-0.241704	0	0	0	0	0	0	1.14049	0	-0.399027	0	0	0
0.08	0	0	0	0.361278	0	-0.238085	0	0	0	0	0	0	1.16952	0	-0.400818	0	0	0
0.085	0	0	0	0.344458	0	-0.23545	0	0	0	0	0	0	1.19778	0	-0.402519	0	0	0
0.09	0	0	0	0.324848	0	-0.233048	0	0	0	0	0	0	1.22485	0	-0.404843	0	0	0
0.095	0	0	0	0.305485	0	-0.23268	0	0	0	0	0	0	1.25035	0	-0.407801	0	0	0
0.1	0	0	0	0.289293	0	-0.231266	0	0	0	0	0	0	1.274	0	-0.411101	0	0	0
0.105	0	0	0	0.276206	0	-0.229157	0	0	0	0	0	0	1.29531	0	-0.41471	0	0	0
0.11	0	0	0	0.264299	0	-0.227696	0	0	0	0	0	0	1.31415	0	-0.418279	0	0	0
0.115	0	0	0	0.252148	0	-0.227347	0	0	0	0	0	0	1.33032	0	-0.421631	0	0	0
0.12	0	0	0	0.241212	0	-0.227724	0	0	0	0	0	0	1.34353	0	-0.424345	0	0	0
0.125	0	0	0	0.231411	0	-0.228087	0	0	0	0	0	0	1.35396	0	-0.426344	0	0	0
0.13	0	0	0	0.223096	0	-0.228837	0	0	0	0	0	0	1.36147	0	-0.427773	0	0	0
0.135	0	0	0	0.216103	0	-0.229885	0	0	0	0	0	0	1.36631	0	-0.428871	0	0	0
0.14	0	0	0	0.211418	0	-0.231147	0	0	0	0	0	0	1.36862	0	-0.429455	0	0	0
0.145	0	0	0	0.209025	0	-0.232204	0	0	0	0	0	0	1.36897	0	-0.42943	0	0	0
0.15	0	0	0	0.207032	0	-0.235944	0	0	0	0	0	0	1.36738	0	-0.429003	0	0	0
0.155	0	0	0	0.202738	0	-0.2378	0	0	0	0	0	0	1.36381	0	-0.427299	0	0	0
0.16	0	0	0	0.208504	0	-0.236891	0	0	0	0	0	0	1.3583	0	-0.42508	0	0	0
0.165	0	0	0	0.210641	0	-0.240385	0	0	0	0	0	0	1.35079	0	-0.422418	0	0	0
0.17	0	0	0	0.214252	0	-0.242489	0	0	0	0	0	0	1.34148	0	-0.418805	0	0	0
0.175	0	0	0	0.221314	0	-0.244307	0	0	0	0	0	0	1.32982	0	-0.41616	0	0	0
0.18	0	0	0	0.230135	0	-0.245468	0	0	0	0	0	0	1.31661	0	-0.41235	0	0	0
0.185	0	0	0	0.24035	0	-0.246441	0	0	0	0	0	0	1.30187	0	-0.407925	0	0	0
0.19	0	0	0	0.251485	0	-0.248552	0	0	0	0	0	0	1.28555	0	-0.403165	0	0	0
0.195	0	0	0	0.263901	0	-0.247814	0	0	0	-22.9112	38.087	-19.93	1.26786	0	-0.398102	0	-0.653443	0
0.2	0	0	0	0.277162	0	-0.247453	0	0	0	-77.1542	180.315	-12.0262	1.16247	0	-0.444785	0	-6.9561	0
0.205	0	0	0	0.291325	0	-0.246789	0	0	0	-142.736	415.069	12.2839	1.107	0	-0.44989	0	-9.10053	0
0.21	0	0	0	0.306343	0	-0.245984	0	0	0	-203.415	731.558	66.9264	1.09684	0	-0.428794	0	-3.12502	0
0.215	0	0	0	0.322119	0	-0.245048	0	0	0	-241.423	1084.84	152.015	1.08811	0	-0.411567	0	9.03403	0
0.22	0	0	0	0.338762	0	-0.244209	0	0	0	-259.235	1431.97	241.341	1.07817	0	-0.397761	0	14.58	0
0.225	0	0	0	0.356269	0	-0.243583	0	0	0	-286.785	1743.71	296.264	1.06177	0	-0.387158	0	2.45248	0
0.23	0	0	0	0.374564	0	-0.241199	0	0	0	-334.992	1990.66	283.9	1.04235	0	-0.380414	0	-18.904	0
0.235	0	0	0	0.393628	0	-0.240003	0	0	0	-381.538	2157.83	197.411	1.02592	0	-0.377729	0	-30.7174	0
0.24	0	0	0	0.413123	0	-0.239069	0	0	0	-412.605	2267.55	65.466	1.01096	0	-0.378164	0	-24.5185	0
0.245	0	0	0	0.433198	0	-0.238353	0	0	0	-425.209	2357.19	-59.3483	0.996018	0	-0.379382	0	-4.43356	0
0.25	0	0	0	0.453771	0	-0.237906	0	0	0	-418.97	2451.53	-131.952	0.982559	0	-0.379662	0	15.1342	0
0.255	0	0	0	0.47558	0	-0.237319	0	0	0	-401.127	2555.29	-131.707	0.968676	0	-0.378482	0	22.7515	0
0.26	0	0	0	0.497671	0	-0.23583	0	0	0	-372.042	2651.67	-68.86	0.95137	0	-0.376816	0	19.5851	0
0.265	0	0	0	0.52022	0	-0.236776	0	0	0	-324.206	2714	23.7311	0.929054	0	-0.375875	0	12.6389	0
0.27	0	0	0	0.54393	0	-0.236872	0	0	0	-256.395	2730.59	105.958	0.901049	0	-0.376214	0	5.51206	0
0.275	0	0	0	0.568602	0	-0.236588	0	0	0	-177.169	2712.13	151.421	0.869394	0	-0.377464	0	-0.50078	0
0.28	0	0	0	0.594025	0	-0.236542	0	0	0	-98.2082	2674.81	163.9	0.838682	0	-0.378547	0	-3.93174	0
0.285	0	0	0	0.62047	0	-0.235949	0	0	0	-30.2304	2626.63	163.115	0.812852	0	-0.378553	0	-5.50346	0
0.29	0	0	0	0.647718	0	-0.235956	0	0	0	23.1205	2563.19	159.401	0.791409	0	-0.37755	0	-9.11397	0
0.295	0	0	0	0.67575	0	-0.236036	0	0	0	71.7149	2481.98	148.391	0.771904	0	-0.376008	0	-17.0922	0
0.3	0	0	0	0.704281	0	-0.236316	0	0	0	129.467	2390.21	121.841	0.753268	0	-0.373913	0	-25.2831	0
0.305	0	0	0	0.733677	0	-0.236526	0	0	0	199.922	2290.23	73.4078	0.735302	0	-0.371516	0	-24.1796	0
0.31	0	0	0	0.764037	0	-0.236325	0	0	0	274.336	2169.09	3.12994	0.717154	0	-0.369677	0	-6.49654	0
0.315	0	0	0	0.79429	0	-0.236438	0	0	0	340.036	2008.37	-78.7115	0.696717	0	-0.369321	0	26.5726	0
0.32	0	0	0	0.824715	0	-0.237074	0	0	0	389.95	1797.81	-152.087	0.670774	0	-0.370924	0	64.5785	0
0.325	0	0	0	0.855305	0	-0.236817	0	0	0	424.223	1541.81	-190.305	0.635848	0	-0.374308	0	89.6208	0
0.33	0	0	0	0.886374	0	-0.236965	0	0	0	442.766	1257.7	-171.313	0.589153	0	-0.378306	0	84.9743	0
0.335	0	0	0	0.917224	0	-0.237126	0	0	0	440.881	965.82	-94.5554	0.528284	0	-0.381213	0	43.7128	0
0.34	0	0	0	0.948099	0	-0.237342	0	0	0	414.08	682.723	9.29383	0.450008	0	-0.382569	0	-24.9684	0
0.345	0	0	0	0.97922	0	-0.236939	0	0	0	362.022	429.942	92.0709	0.35862	0	-0.382796	0	-93.4201	0
0.35	0	0	0	1.01005	0	-0.237678	0	0	0	290.344	233.757	114.341	0.27988	0	-0.38321	0	-120.544	0
0.355	0	0	0	1.04047	0	-0.23818	0	0	0	211.521	106.968	68.9193	0.410057	0	-0.375112	0	-83.0146	0
0.36	0	0	0	1.07086	0	-0.238799	0	0	0	141.998	33.5966	-13.7023	0.423236	0	-0.374185	0	-8.9476	0
0.365	0	0	0	1.10095	0	-0.239443	0	0	0	0	0	0	0.403283	0	-0.375455	0	0	0
0.37	0	0	0	1.13067	0	-0.240093	0	0	0	0	0	0	0.383643	0	-0.376523	0	0	0
0.375	0	0	0	1.15962	0	-0.240585	0	0	0	0	0	0	0.364373	0	-0.377304	0	0	0
0.38	0	0	0	1.18708	0	-0.240852	0	0	0	0	0	0	0.345058	0	-0.377686	0	0	0
0.385	0	0	0	1.2131	0	-0.241036	0	0	0	0	0	0	0.327912	0	-0.376534	0	0	0
0.39	0	0	0	1.23752	0	-0.240923	0	0	0	0	0	0	0.310728	0	-0.371847	0	0	0
0.395	0	0	0	1.25985	0	-0.241101	0	0	0	0	0	0	0.290904	0	-0.367654	0	0	0
0.4	0	0	0	1.28026	0	-0.241418	0	0	0	0	0	0	0.273964	0	-0.362883	0	0	0
0.405	0	0	0	1.29845	0	-0.241529	0	0	0	0	0	0	0.260006	0	-0.358149	0	0	0
